<svg width="166" height="32" viewBox="0 0 166 32" fill="none" xmlns="http://www.w3.org/2000/svg">
<path d="M41.992 25V9.304H46.192C48.592 9.304 50.464 9.952 51.808 11.248C53.152 12.544 53.824 14.488 53.824 17.08C53.824 18.376 53.648 19.52 53.296 20.512C52.96 21.504 52.464 22.336 51.808 23.008C51.168 23.664 50.384 24.16 49.456 24.496C48.544 24.832 47.504 25 46.336 25H41.992ZM44.776 22.744H46C47.6 22.744 48.824 22.288 49.672 21.376C50.536 20.448 50.968 19.016 50.968 17.08C50.968 15.16 50.536 13.76 49.672 12.88C48.808 12 47.584 11.56 46 11.56H44.776V22.744ZM61.792 25.288C60.976 25.288 60.216 25.152 59.512 24.88C58.808 24.592 58.192 24.184 57.664 23.656C57.136 23.128 56.72 22.488 56.416 21.736C56.128 20.968 55.984 20.096 55.984 19.12C55.984 18.16 56.136 17.296 56.44 16.528C56.744 15.76 57.144 15.112 57.64 14.584C58.152 14.056 58.736 13.648 59.392 13.36C60.048 13.072 60.72 12.928 61.408 12.928C62.208 12.928 62.912 13.064 63.52 13.336C64.128 13.608 64.632 13.992 65.032 14.488C65.448 14.984 65.76 15.576 65.968 16.264C66.176 16.952 66.28 17.704 66.28 18.52C66.28 18.792 66.264 19.048 66.232 19.288C66.216 19.528 66.192 19.72 66.16 19.864H58.672C58.8 20.92 59.168 21.736 59.776 22.312C60.4 22.872 61.192 23.152 62.152 23.152C62.664 23.152 63.136 23.08 63.568 22.936C64.016 22.776 64.456 22.56 64.888 22.288L65.824 24.016C65.264 24.384 64.64 24.688 63.952 24.928C63.264 25.168 62.544 25.288 61.792 25.288ZM58.648 17.992H63.88C63.88 17.08 63.68 16.368 63.28 15.856C62.896 15.328 62.296 15.064 61.48 15.064C60.776 15.064 60.16 15.312 59.632 15.808C59.104 16.304 58.776 17.032 58.648 17.992ZM72.2041 25.288C71.3881 25.288 70.5801 25.136 69.7801 24.832C68.9961 24.512 68.3161 24.12 67.7401 23.656L69.0361 21.88C69.5641 22.296 70.0841 22.624 70.5961 22.864C71.1241 23.088 71.6921 23.2 72.3001 23.2C72.9401 23.2 73.4121 23.072 73.7161 22.816C74.0201 22.544 74.1721 22.2 74.1721 21.784C74.1721 21.544 74.1001 21.336 73.9561 21.16C73.8121 20.968 73.6201 20.8 73.3801 20.656C73.1401 20.512 72.8681 20.384 72.5641 20.272C72.2601 20.144 71.9561 20.016 71.6521 19.888C71.2681 19.744 70.8761 19.576 70.4761 19.384C70.0761 19.192 69.7161 18.96 69.3961 18.688C69.0921 18.416 68.8361 18.104 68.6281 17.752C68.4361 17.384 68.3401 16.952 68.3401 16.456C68.3401 15.416 68.7241 14.568 69.4921 13.912C70.2601 13.256 71.3081 12.928 72.6361 12.928C73.4521 12.928 74.1881 13.072 74.8441 13.36C75.5001 13.648 76.0681 13.976 76.5481 14.344L75.2761 16.024C74.8601 15.72 74.4361 15.48 74.0041 15.304C73.5881 15.112 73.1481 15.016 72.6841 15.016C72.0921 15.016 71.6521 15.144 71.3641 15.4C71.0921 15.64 70.9561 15.944 70.9561 16.312C70.9561 16.552 71.0201 16.76 71.1481 16.936C71.2921 17.096 71.4761 17.24 71.7001 17.368C71.9241 17.496 72.1801 17.616 72.4681 17.728C72.7721 17.84 73.0841 17.952 73.4041 18.064C73.8041 18.208 74.2041 18.376 74.6041 18.568C75.0041 18.744 75.3641 18.968 75.6841 19.24C76.0201 19.512 76.2841 19.848 76.4761 20.248C76.6841 20.632 76.7881 21.096 76.7881 21.64C76.7881 22.152 76.6841 22.632 76.4761 23.08C76.2841 23.512 75.9961 23.896 75.6121 24.232C75.2281 24.552 74.7481 24.808 74.1721 25C73.5961 25.192 72.9401 25.288 72.2041 25.288ZM82.9353 25.288C82.2473 25.288 81.6633 25.184 81.1833 24.976C80.7193 24.768 80.3353 24.48 80.0312 24.112C79.7433 23.728 79.5273 23.28 79.3833 22.768C79.2553 22.24 79.1913 21.656 79.1913 21.016V15.4H77.5113V13.336L79.3353 13.216L79.6713 10H81.9753V13.216H84.9753V15.4H81.9753V21.016C81.9753 22.392 82.5273 23.08 83.6313 23.08C83.8393 23.08 84.0473 23.056 84.2553 23.008C84.4793 22.96 84.6793 22.896 84.8553 22.816L85.3353 24.856C85.0153 24.968 84.6473 25.064 84.2313 25.144C83.8313 25.24 83.3993 25.288 82.9353 25.288ZM92.1201 25.288C91.3041 25.288 90.5441 25.152 89.8401 24.88C89.1361 24.592 88.5201 24.184 87.9921 23.656C87.4641 23.128 87.0481 22.488 86.7441 21.736C86.4561 20.968 86.3121 20.096 86.3121 19.12C86.3121 18.16 86.4641 17.296 86.7681 16.528C87.0721 15.76 87.4721 15.112 87.9681 14.584C88.4801 14.056 89.0641 13.648 89.7201 13.36C90.3761 13.072 91.0481 12.928 91.7361 12.928C92.5361 12.928 93.2401 13.064 93.8481 13.336C94.4561 13.608 94.9601 13.992 95.3601 14.488C95.7761 14.984 96.0881 15.576 96.2961 16.264C96.5041 16.952 96.6081 17.704 96.6081 18.52C96.6081 18.792 96.5921 19.048 96.5601 19.288C96.5441 19.528 96.5201 19.72 96.4881 19.864H89.0001C89.1281 20.92 89.4961 21.736 90.1041 22.312C90.7281 22.872 91.5201 23.152 92.4801 23.152C92.9921 23.152 93.4641 23.08 93.8961 22.936C94.3441 22.776 94.7841 22.56 95.2161 22.288L96.1521 24.016C95.5921 24.384 94.9681 24.688 94.2801 24.928C93.5921 25.168 92.8721 25.288 92.1201 25.288ZM88.9761 17.992H94.2081C94.2081 17.08 94.0081 16.368 93.6081 15.856C93.2241 15.328 92.6241 15.064 91.8081 15.064C91.1041 15.064 90.4881 15.312 89.9601 15.808C89.4321 16.304 89.1041 17.032 88.9761 17.992ZM99.2442 25V8.056H101.956V18.64H102.028L106.396 13.216H109.42L105.388 18.016L109.828 25H106.828L103.804 19.888L101.956 22V25H99.2442ZM116.828 25V9.304H119.612V15.616H125.972V9.304H128.756V25H125.972V18.04H119.612V25H116.828ZM135.358 25.288C134.318 25.288 133.478 24.976 132.838 24.352C132.198 23.712 131.878 22.872 131.878 21.832C131.878 21.208 132.006 20.656 132.262 20.176C132.534 19.68 132.95 19.256 133.51 18.904C134.086 18.552 134.806 18.256 135.67 18.016C136.55 17.776 137.598 17.592 138.814 17.464C138.798 17.16 138.75 16.872 138.67 16.6C138.606 16.312 138.486 16.064 138.31 15.856C138.15 15.632 137.934 15.464 137.662 15.352C137.39 15.224 137.054 15.16 136.654 15.16C136.078 15.16 135.51 15.272 134.95 15.496C134.406 15.72 133.87 15.992 133.342 16.312L132.334 14.464C132.99 14.048 133.726 13.688 134.542 13.384C135.358 13.08 136.238 12.928 137.182 12.928C138.654 12.928 139.75 13.368 140.47 14.248C141.206 15.112 141.574 16.368 141.574 18.016V25H139.294L139.102 23.704H139.006C138.478 24.152 137.91 24.528 137.302 24.832C136.71 25.136 136.062 25.288 135.358 25.288ZM136.246 23.128C136.726 23.128 137.158 23.016 137.542 22.792C137.942 22.568 138.366 22.248 138.814 21.832V19.192C138.014 19.288 137.342 19.416 136.798 19.576C136.254 19.736 135.814 19.92 135.478 20.128C135.142 20.32 134.902 20.544 134.758 20.8C134.614 21.056 134.542 21.328 134.542 21.616C134.542 22.144 134.702 22.528 135.022 22.768C135.342 23.008 135.75 23.128 136.246 23.128ZM148.654 25.288C147.966 25.288 147.382 25.184 146.902 24.976C146.438 24.768 146.054 24.48 145.75 24.112C145.462 23.728 145.246 23.28 145.102 22.768C144.974 22.24 144.91 21.656 144.91 21.016V15.4H143.23V13.336L145.054 13.216L145.39 10H147.694V13.216H150.694V15.4H147.694V21.016C147.694 22.392 148.246 23.08 149.35 23.08C149.558 23.08 149.766 23.056 149.974 23.008C150.198 22.96 150.398 22.896 150.574 22.816L151.054 24.856C150.734 24.968 150.366 25.064 149.95 25.144C149.55 25.24 149.118 25.288 148.654 25.288ZM156.857 25.288C156.169 25.288 155.585 25.184 155.105 24.976C154.641 24.768 154.257 24.48 153.953 24.112C153.665 23.728 153.449 23.28 153.305 22.768C153.177 22.24 153.113 21.656 153.113 21.016V15.4H151.433V13.336L153.257 13.216L153.593 10H155.897V13.216H158.897V15.4H155.897V21.016C155.897 22.392 156.449 23.08 157.553 23.08C157.761 23.08 157.969 23.056 158.177 23.008C158.401 22.96 158.601 22.896 158.777 22.816L159.257 24.856C158.937 24.968 158.569 25.064 158.153 25.144C157.753 25.24 157.321 25.288 156.857 25.288ZM161.377 25V13.216H164.137V25H161.377Z" fill="#FF9E2C"/>
<path d="M29.5879 20.652L29.5372 19.5493L20.8932 18.3147L19.1399 21.7467C17.2887 20.7044 15.5964 19.4023 14.1145 17.88C12.5753 16.4005 11.2638 14.7012 10.2225 12.8373L13.9559 10.9707L10.2225 2.27734L9.20921 2.42401C7.49303 2.66042 5.90306 3.45728 4.68654 4.69068C0.455878 8.91601 2.11321 17.2 8.45721 23.5427C12.4332 27.5173 17.1679 29.652 21.1919 29.6507C22.3166 29.6899 23.4378 29.5032 24.4892 29.1018C25.5406 28.7003 26.5008 28.0922 27.3132 27.3133C28.143 26.4278 28.775 25.3759 29.1672 24.2274C29.5594 23.0789 29.7028 21.8602 29.5879 20.652ZM25.4279 25.428C22.3612 28.4947 15.4532 26.7613 10.3425 21.6573C5.23188 16.5533 3.50521 9.63868 6.57188 6.57201C7.14353 5.99268 7.84318 5.55563 8.61454 5.29601L10.5079 9.71334L9.03188 10.4507C8.71215 10.6108 8.4277 10.8333 8.19528 11.1051C7.96287 11.3768 7.78719 11.6923 7.67859 12.033C7.56999 12.3737 7.53068 12.7327 7.56296 13.0889C7.59524 13.445 7.69846 13.7911 7.86654 14.1067C9.03368 16.1976 10.5013 18.1059 12.2225 19.7707C13.8878 21.4726 15.7884 22.927 17.8665 24.0893C18.1869 24.2632 18.5387 24.3713 18.9014 24.4073C19.2641 24.4432 19.6303 24.4063 19.9785 24.2987C20.3191 24.1927 20.6346 24.0187 20.906 23.7872C21.1773 23.5557 21.3989 23.2716 21.5572 22.952L22.4199 21.2267L26.9092 21.868C26.858 23.1939 26.3323 24.4572 25.4279 25.428Z" fill="#FF9E2C"/>
</svg>
