<svg width="118" height="32" viewBox="0 0 118 32" fill="none" xmlns="http://www.w3.org/2000/svg">
<path d="M41.992 25V9.304H51.448V11.656H44.776V15.664H50.416V18.016H44.776V22.648H51.688V25H41.992ZM53.9221 19.96V17.944H59.6341V19.96H53.9221ZM62.6404 25V9.304H67.5844C68.4484 9.304 69.2484 9.384 69.9844 9.544C70.7364 9.704 71.3844 9.976 71.9284 10.36C72.4724 10.744 72.8964 11.248 73.2004 11.872C73.5044 12.48 73.6564 13.24 73.6564 14.152C73.6564 15.016 73.5044 15.768 73.2004 16.408C72.8964 17.048 72.4724 17.584 71.9284 18.016C71.4004 18.432 70.7684 18.744 70.0324 18.952C69.3124 19.144 68.5284 19.24 67.6804 19.24H65.4244V25H62.6404ZM65.4244 17.008H67.4644C69.7684 17.008 70.9204 16.056 70.9204 14.152C70.9204 13.16 70.6164 12.48 70.0084 12.112C69.4164 11.728 68.5364 11.536 67.3684 11.536H65.4244V17.008ZM80.6541 25.288C79.9181 25.288 79.2141 25.152 78.5421 24.88C77.8701 24.608 77.2701 24.208 76.7421 23.68C76.2301 23.152 75.8221 22.504 75.5181 21.736C75.2141 20.968 75.0621 20.096 75.0621 19.12C75.0621 18.144 75.2141 17.272 75.5181 16.504C75.8221 15.736 76.2301 15.088 76.7421 14.56C77.2701 14.032 77.8701 13.632 78.5421 13.36C79.2141 13.072 79.9181 12.928 80.6541 12.928C81.3901 12.928 82.0941 13.072 82.7661 13.36C83.4541 13.632 84.0541 14.032 84.5661 14.56C85.0781 15.088 85.4861 15.736 85.7901 16.504C86.1101 17.272 86.2701 18.144 86.2701 19.12C86.2701 20.096 86.1101 20.968 85.7901 21.736C85.4861 22.504 85.0781 23.152 84.5661 23.68C84.0541 24.208 83.4541 24.608 82.7661 24.88C82.0941 25.152 81.3901 25.288 80.6541 25.288ZM80.6541 23.032C81.5181 23.032 82.1981 22.68 82.6941 21.976C83.1901 21.256 83.4381 20.304 83.4381 19.12C83.4381 17.92 83.1901 16.968 82.6941 16.264C82.1981 15.544 81.5181 15.184 80.6541 15.184C79.7901 15.184 79.1101 15.544 78.6141 16.264C78.1341 16.968 77.8941 17.92 77.8941 19.12C77.8941 20.304 78.1341 21.256 78.6141 21.976C79.1101 22.68 79.7901 23.032 80.6541 23.032ZM92.1963 25.288C91.3803 25.288 90.5723 25.136 89.7723 24.832C88.9883 24.512 88.3083 24.12 87.7323 23.656L89.0283 21.88C89.5563 22.296 90.0763 22.624 90.5883 22.864C91.1163 23.088 91.6843 23.2 92.2923 23.2C92.9323 23.2 93.4043 23.072 93.7083 22.816C94.0123 22.544 94.1643 22.2 94.1643 21.784C94.1643 21.544 94.0923 21.336 93.9483 21.16C93.8043 20.968 93.6123 20.8 93.3723 20.656C93.1323 20.512 92.8603 20.384 92.5563 20.272C92.2523 20.144 91.9483 20.016 91.6443 19.888C91.2603 19.744 90.8683 19.576 90.4683 19.384C90.0683 19.192 89.7083 18.96 89.3883 18.688C89.0843 18.416 88.8283 18.104 88.6203 17.752C88.4283 17.384 88.3323 16.952 88.3323 16.456C88.3323 15.416 88.7163 14.568 89.4843 13.912C90.2523 13.256 91.3003 12.928 92.6283 12.928C93.4443 12.928 94.1803 13.072 94.8363 13.36C95.4923 13.648 96.0603 13.976 96.5403 14.344L95.2683 16.024C94.8523 15.72 94.4283 15.48 93.9963 15.304C93.5803 15.112 93.1403 15.016 92.6763 15.016C92.0843 15.016 91.6443 15.144 91.3563 15.4C91.0843 15.64 90.9483 15.944 90.9483 16.312C90.9483 16.552 91.0123 16.76 91.1403 16.936C91.2843 17.096 91.4683 17.24 91.6923 17.368C91.9163 17.496 92.1723 17.616 92.4603 17.728C92.7643 17.84 93.0763 17.952 93.3963 18.064C93.7963 18.208 94.1963 18.376 94.5963 18.568C94.9963 18.744 95.3563 18.968 95.6763 19.24C96.0123 19.512 96.2763 19.848 96.4683 20.248C96.6763 20.632 96.7803 21.096 96.7803 21.64C96.7803 22.152 96.6763 22.632 96.4683 23.08C96.2763 23.512 95.9883 23.896 95.6043 24.232C95.2203 24.552 94.7403 24.808 94.1643 25C93.5883 25.192 92.9323 25.288 92.1963 25.288ZM102.927 25.288C102.239 25.288 101.655 25.184 101.175 24.976C100.711 24.768 100.327 24.48 100.023 24.112C99.7354 23.728 99.5194 23.28 99.3754 22.768C99.2474 22.24 99.1834 21.656 99.1834 21.016V15.4H97.5034V13.336L99.3274 13.216L99.6634 10H101.967V13.216H104.967V15.4H101.967V21.016C101.967 22.392 102.519 23.08 103.623 23.08C103.831 23.08 104.039 23.056 104.247 23.008C104.471 22.96 104.671 22.896 104.847 22.816L105.327 24.856C105.007 24.968 104.639 25.064 104.223 25.144C103.823 25.24 103.391 25.288 102.927 25.288ZM109.788 25.288C108.748 25.288 107.908 24.976 107.268 24.352C106.628 23.712 106.308 22.872 106.308 21.832C106.308 21.208 106.436 20.656 106.692 20.176C106.964 19.68 107.38 19.256 107.94 18.904C108.516 18.552 109.236 18.256 110.1 18.016C110.98 17.776 112.028 17.592 113.244 17.464C113.228 17.16 113.18 16.872 113.1 16.6C113.036 16.312 112.916 16.064 112.74 15.856C112.58 15.632 112.364 15.464 112.092 15.352C111.82 15.224 111.484 15.16 111.084 15.16C110.508 15.16 109.94 15.272 109.38 15.496C108.836 15.72 108.3 15.992 107.772 16.312L106.764 14.464C107.42 14.048 108.156 13.688 108.972 13.384C109.788 13.08 110.668 12.928 111.612 12.928C113.084 12.928 114.18 13.368 114.9 14.248C115.636 15.112 116.004 16.368 116.004 18.016V25H113.724L113.532 23.704H113.436C112.908 24.152 112.34 24.528 111.732 24.832C111.14 25.136 110.492 25.288 109.788 25.288ZM110.676 23.128C111.156 23.128 111.588 23.016 111.972 22.792C112.372 22.568 112.796 22.248 113.244 21.832V19.192C112.444 19.288 111.772 19.416 111.228 19.576C110.684 19.736 110.244 19.92 109.908 20.128C109.572 20.32 109.332 20.544 109.188 20.8C109.044 21.056 108.972 21.328 108.972 21.616C108.972 22.144 109.132 22.528 109.452 22.768C109.772 23.008 110.18 23.128 110.676 23.128Z" fill="#FF9E2C"/>
<path d="M2.66675 5.33398V26.6673H29.3334V5.33398H2.66675ZM13.3081 18.2673L16.0001 20.3567L18.6921 18.2673L25.8667 24.0007H6.13341L13.3081 18.2673ZM5.33341 21.226V12.0593L11.1427 16.578L5.33341 21.226ZM20.8574 16.578L26.6667 12.0607V21.226L20.8574 16.578ZM26.6667 8.00065V8.68198L16.0001 16.978L5.33341 8.68198V8.00065H26.6667Z" fill="#FF9E2C"/>
</svg>
