<svg width="24" height="26" viewBox="0 0 24 26" fill="none" xmlns="http://www.w3.org/2000/svg">
<path d="M19.3774 7.69924C19.3957 7.49593 19.4048 7.28919 19.4048 7.08098C19.4162 6.14431 19.2352 5.21477 18.8724 4.34621C18.5096 3.47766 17.9721 2.68736 17.291 2.0211C16.61 1.35485 15.799 0.825892 14.9051 0.464877C14.0111 0.103862 13.0519 -0.0820313 12.0831 -0.0820312C11.1143 -0.0820313 10.1551 0.103862 9.26112 0.464877C8.36715 0.825892 7.55616 1.35485 6.87514 2.0211C6.19413 2.68736 5.65663 3.47766 5.29379 4.34621C4.93096 5.21477 4.74999 6.14431 4.76139 7.08098C4.76139 7.27694 4.7695 7.47111 4.78571 7.66348C2.05362 8.20581 0 10.5618 0 13.3631C0 16.5671 2.68547 19.199 6.00025 19.199H10.2772V25.3229H9.87189V25.7638H14.1788V25.3229H13.8241V19.199H18.0003C21.3135 19.199 24 16.575 24 13.369C24 10.6255 22.0274 8.30135 19.3774 7.69924ZM10.2316 17.9742H6.44766C6.35595 17.9742 6.05751 17.9428 6.00025 17.9428C5.36841 17.9428 4.75632 17.7758 4.18072 17.5396C3.38509 17.2134 2.69795 16.6813 2.19493 16.0018C1.69191 15.3223 1.3925 14.5219 1.32964 13.6885C1.26678 12.8551 1.44292 12.0211 1.83866 11.2782C2.23441 10.5354 2.83443 9.91251 3.57269 9.47812C4.02871 9.20866 5.45252 8.68446 6.41675 8.68446C7.9765 8.6864 9.4741 9.2758 10.5919 10.3276C11.7096 11.3795 12.3596 12.811 12.4038 14.3184C11.753 14.749 11.2306 15.3372 10.8888 16.0243C10.7459 15.58 10.4034 14.8074 9.66364 14.339C8.57932 13.6531 7.05215 13.8819 7.05215 13.8819C7.05215 13.8819 7.2832 15.2233 8.36955 15.9097C9.18583 16.4261 10.2524 16.4241 10.7307 16.3918C10.547 16.8784 10.453 17.3924 10.4531 17.9105C10.4531 17.9232 10.4531 17.9747 10.4531 17.9747L10.2316 17.9742ZM21.3074 16.5495C20.881 16.963 20.3758 17.2927 19.8198 17.5205C19.2442 17.7562 18.6316 17.9369 18.0003 17.9369C17.9425 17.9369 17.6456 17.9742 17.5523 17.9742H12.6587V24.245H11.544C11.544 24.245 11.5516 17.9281 11.5516 17.9022C11.5522 17.0385 11.9067 16.2103 12.5375 15.5988C13.1682 14.9873 14.0238 14.6423 14.917 14.6393C15.0636 14.6393 15.2042 14.583 15.3079 14.4828C15.4116 14.3826 15.4698 14.2466 15.4698 14.1048C15.4698 13.9631 15.4116 13.8271 15.3079 13.7269C15.2042 13.6267 15.0636 13.5704 14.917 13.5704C14.7477 13.57 14.5785 13.5792 14.4103 13.5978C14.7848 13.4861 15.2925 13.2548 15.6578 12.7845C16.3079 11.9458 16.2648 10.6613 16.2648 10.6613C16.2648 10.6613 15.1643 10.7367 14.5137 11.5749C13.9057 12.3588 13.9057 13.5292 13.9082 13.6816C13.7618 13.7143 13.6172 13.7542 13.475 13.8011C13.3668 12.7579 13.0129 11.7526 12.4405 10.8622C11.8681 9.97178 11.0924 9.21996 10.1729 8.66437C10.672 8.53112 11.5957 8.21806 12.0983 7.63017C12.8077 6.79732 12.4059 5.72882 12.4059 5.72882C12.4059 5.72882 10.8493 6.01003 10.1379 6.84288C9.66617 7.39501 9.68492 8.05051 9.75079 8.4297C8.72621 7.89889 7.58168 7.62152 6.41929 7.62233C6.36305 7.62233 6.3068 7.62233 6.25107 7.62233C6.20423 7.62376 6.15776 7.63084 6.11274 7.64339L6.10565 7.55717C6.09196 7.39795 6.08538 7.23726 6.08538 7.07853C6.07809 6.3122 6.22791 5.55208 6.52617 4.84205C6.82444 4.13203 7.26523 3.48618 7.82311 2.9418C8.38098 2.39742 9.04488 1.9653 9.77645 1.67041C10.508 1.37551 11.2928 1.22367 12.0854 1.22367C12.878 1.22367 13.6627 1.37551 14.3943 1.67041C15.1259 1.9653 15.7898 2.39742 16.3476 2.9418C16.9055 3.48618 17.3463 4.13203 17.6446 4.84205C17.9428 5.55208 18.0927 6.3122 18.0854 7.07853C18.0854 7.24706 18.0778 7.41755 18.0626 7.58559L17.9643 8.6874L19.079 8.94019C19.587 9.05559 20.0711 9.2532 20.5109 9.52466C21.1767 9.93286 21.7249 10.4973 22.1044 11.1654C22.484 11.8336 22.6825 12.5837 22.6816 13.346C22.6828 13.9403 22.5626 14.529 22.3279 15.0783C22.0931 15.6275 21.7484 16.1265 21.3135 16.5466L21.3074 16.5495Z" fill="white"/>
</svg>
